<svg width="24" height="24" viewBox="0 0 24 24" fill="none" xmlns="http://www.w3.org/2000/svg">
<path d="M16.9998 10L14.9998 4M6.99976 10L8.99976 4M11.9998 20H7.24373C6.52713 20 5.83421 19.7434 5.29036 19.2768C4.74651 18.8102 4.38765 18.1643 4.27873 17.456L3.02373 10.304C2.9799 10.019 2.99822 9.72786 3.07744 9.45059C3.15665 9.17331 3.29489 8.91645 3.48268 8.6976C3.67046 8.47876 3.90335 8.30311 4.16537 8.1827C4.4274 8.06229 4.71236 7.99997 5.00073 8H18.9998C19.2881 7.99997 19.5731 8.06229 19.8351 8.1827C20.0972 8.30311 20.33 8.47876 20.5178 8.6976C20.7056 8.91645 20.8438 9.17331 20.9231 9.45059C21.0023 9.72786 21.0206 10.019 20.9768 10.304L20.6178 12.347M15.9998 19H21.9998M18.9998 16V22" stroke="white" stroke-linecap="round" stroke-linejoin="round"/>
</svg>
